<?xml version="1.0" encoding="UTF-8"?>
<svg xmlns="http://www.w3.org/2000/svg" viewBox="0 0 239.33 130.98">
  <path fill="#ffffff" d="M-12.3-222.94c-.05-.14-2.63-1.18,0-2v2Z"/>
  <polygon fill="#ffffff" points="-123.98 -100.66 -124.98 -100.66 -124.98 -101.66 -123.98 -100.66"/>
  <polygon fill="#ffffff" points="-123.98 -80.66 -124.98 -80.66 -124.98 -81.66 -123.98 -80.66"/>
  <polygon fill="#ffffff" points="-123.98 -45.66 -124.98 -45.66 -124.98 -46.66 -123.98 -45.66"/>
  <path fill="#ffffff" d="M166.35,97.72c10.41-4.01,19.14-11.05,24.85-21.43,3.47-6.31,6.28-19,10.97-23.03.62-.53,4.72-2.98,5.02-2.98h26.5c.04-3.3-4.16-4.62-6.65-5.85-5.15-2.55-15.43-4.04-18.76-6.24-1.89-1.25-4.67-7.51-7.11-9.89-11.93-11.65-39.43-18.72-55.27-19.94,6.15,6.2,14.88,10.85,22.99,14,.2,1.89-2.09.8-3.2.7-6.19-.58-12.6-2.75-18.79-1.22,6.04,6.4,14.95,11.44,23.99,11.51.63.56-.42,2.95-1.9,5.56l20.99-1.23c.45-1.03,1.24-1.88,2.41-2.22,7.95-2.35,8.77,9.96.85,8.86-1.99-.28-3.17-1.74-3.54-3.4l-21.15-1.24c-1.9,3.22-4.27,6.56-4.89,7.1-.91.81-7.29,7.08-6.98,7.5,7.56,1.33,15.62,1.7,20,9-14.58-7.29-30.46-9.62-46.13-7.97C109.08,36.86,33.84,15.89,4.35,14.13c-2.76,2.73,7,11.76,9.08,13.41,8.24,6.52,19.03,10.4,28.91,13.6,21.85,6.5-2.17.91-3.24.74-8.18-1.29-17.6-4.71-25.75-6.75-1.49,2.01,8.07,10.97,9.98,12.51,25.37,20.5,110.91,21.95,140.36,30.65-.01,1.81-4.3,1.06-5.48.98-19.59-1.4-39.91-4.98-59.5-6.99-.47,2.08,1.09,2.28,2.27,3.22,12.55,10.04,31.81,11.21,47.23,11.78,1.21.04,3.72-.75,3.48.99-9.01,2.11-19.27.1-28.29,2.22-5.12,1.2,6.74,5.56,16.64,8.4l-22.25,9.67-.07-2.88-4.8.02c-1.31,6.52-6.29,12.04-13.39,10.65-4.41-.86-6.64-6.16-11.74-4.79v2c2.91,7.45,10.03,8.84,17.42,7.91l46.85-19.95,49.18,10.03-1.4,4.85c7.39,5.1,9.95-4.73,18.33-1.36,6.89,2.77,4.27,10.24,12.11,11.43,2.24-20.52-42.59-23.48-63.92-28.74Z"/>
</svg>
